<?xml version="1.0" encoding="UTF-8" standalone="no"?>
<!-- hand-crafted: Alexander Drichel -->
<svg xmlns="http://www.w3.org/2000/svg" xmlns:xlink="http://www.w3.org/1999/xlink" width="618" height="518">
	<defs id="defs4">
		<symbol id="node">
			<circle cx="100" cy="100" r="13.5" style="fill:#000000"/>
		</symbol>
	</defs>

	<g id="text1" style="font-size:40px;fill:#000000;stroke-width:1px;stroke-linecap:butt;stroke-linejoin:miter;font-family:Bitstream Vera Sans">
	    <text x="15" y="55">A</text>
	    <text x="290" y="101">B</text>
	    <text x="584" y="69">C</text>
	    <text x="25" y="305">D</text>
	    <text x="521" y="274">E</text>
	    <text x="275" y="414">F</text>
	    <text x="559" y="473">G</text>
	</g>
	
	<g id="line2" style="fill-opacity:0.75;fill-rule:evenodd;stroke:#000000;stroke-width:4;stroke-linecap:butt;stroke-linejoin:miter;stroke-miterlimit:4;">
	    <path d="M 303,128 L 558,60"/>
	    <path d="M 558,60 L 490,260"/>
	    <path d="M 549,426 L 490,260"/>
	    <path d="M 305,362 L 549,426"/>
	    <path d="M 65,40 L 303,128"/>
	    <path d="M 80,288 L 65,40"/>
	    <path d="M 80,288 L 305,362"/>
	    <path d="M 303,128 L 490,260"/>
	    <path d="M 80,288 L 490,260"/>
	    <path d="M 303,128 L 80,290"/>
	    <path d="M 305,362 L 490,260"/>  
	</g>  

	<use x="203" y="28" xlink:href="#node"/>	
	<use x="458" y="-40" xlink:href="#node"/>	
	<use x="449" y="326" xlink:href="#node"/>	
	<use x="205" y="262" xlink:href="#node"/>	
	<use x="-35" y="-60" xlink:href="#node"/>
	<use x="-20" y="188" xlink:href="#node"/>	
	<use x="390" y="160" xlink:href="#node"/>		
	   
	<g id="text2" style="font-size:27px;fill:#000000;stroke-width:1px;stroke-linecap:butt;stroke-linejoin:miter;font-family:Bitstream Vera Sans">
	    <text x="162" y="65">7</text>
	    <text x="41" y="173">5</text>
	    <text x="172" y="191">9</text>
	    <text x="294" y="260">15</text>
	    <text x="417" y="80">8</text>
	    <text x="400" y="187">7</text>
	    <text x="404" y="334">8</text>
	    <text x="173" y="356">6</text>
	    <text x="411" y="422">11</text>
	    <text x="531" y="346">9</text>
	    <text x="538" y="165">5</text>
	</g>

</svg>